<svg xmlns="http://www.w3.org/2000/svg" width="32" height="32" viewBox="0 0 32 32">
  <rect width="32" height="32" rx="7" fill="#1E1A40"/>
  <circle cx="16" cy="16" r="12.8" fill="none" stroke="#F2EAD0" stroke-width="1.5"/>
  <path d="M 16.00 16.00 L 16.06 16.01 L 16.12 16.02 L 16.18 16.05 L 16.23 16.09 L 16.27 16.14 L 16.31 16.20 L 16.33 16.27 L 16.35 16.35 L 16.35 16.43 L 16.34 16.51 L 16.32 16.59 L 16.28 16.68 L 16.23 16.76 L 16.17 16.84 L 16.09 16.91 L 16.00 16.98 L 15.90 17.04 L 15.78 17.08 L 15.66 17.11 L 15.53 17.13 L 15.39 17.13 L 15.25 17.12 L 15.11 17.09 L 14.96 17.04 L 14.82 16.97 L 14.68 16.88 L 14.54 16.78 L 14.42 16.66 L 14.30 16.52 L 14.20 16.36 L 14.11 16.19 L 14.04 16.00 L 13.99 15.80 L 13.96 15.59 L 13.95 15.38 L 13.96 15.16 L 14.00 14.93 L 14.06 14.71 L 14.15 14.48 L 14.27 14.27 L 14.41 14.06 L 14.57 13.86 L 14.76 13.68 L 14.97 13.51 L 15.20 13.36 L 15.45 13.24 L 15.72 13.13 L 16.00 13.06 L 16.29 13.01 L 16.60 13.00 L 16.91 13.01 L 17.22 13.06 L 17.53 13.14 L 17.84 13.25 L 18.14 13.40 L 18.43 13.57 L 18.70 13.78 L 18.95 14.03 L 19.19 14.30 L 19.40 14.59 L 19.58 14.92 L 19.73 15.26 L 19.84 15.62 L 19.92 16.00 L 19.96 16.39 L 19.97 16.79 L 19.93 17.19 L 19.85 17.59 L 19.73 17.99 L 19.57 18.38 L 19.36 18.76 L 19.12 19.12 L 18.84 19.46 L 18.52 19.77 L 18.17 20.05 L 17.78 20.30 L 17.37 20.51 L 16.93 20.69 L 16.47 20.82 L 16.00 20.90 L 15.51 20.94 L 15.02 20.93 L 14.52 20.87 L 14.03 20.75 L 13.55 20.59 L 13.07 20.38 L 12.62 20.12 L 12.19 19.81 L 11.79 19.46 L 11.42 19.06 L 11.08 18.63 L 10.79 18.16 L 10.55 17.65 L 10.35 17.12 L 10.21 16.57 L 10.12 16.00 L 10.09 15.42 L 10.11 14.83 L 10.20 14.24 L 10.34 13.66 L 10.54 13.08 L 10.80 12.53 L 11.12 12.00 L 11.49 11.49 L 11.92 11.03 L 12.39 10.60 L 12.91 10.22 L 13.47 9.89 L 14.06 9.61 L 14.69 9.39 L 15.33 9.23 L 16.00 9.14 L 16.68 9.11 L 17.36 9.15 L 18.05 9.26 L 18.72 9.43 L 19.38 9.68 L 20.02 9.99 L 20.62 10.36 L 21.20 10.80 L 21.73 11.30 L 22.21 11.85 L 22.65 12.45 L 23.02 13.09 L 23.33 13.78 L 23.57 14.49 L 23.74 15.24 L 23.84 16.00 L 23.86 16.77 L 23.81 17.55 L 23.68 18.33 L 23.47 19.09 L 23.19 19.84 L 22.83 20.56 L 22.39 21.25 L 21.89 21.89 L 21.32 22.49 L 20.70 23.03 L 20.01 23.51 L 19.28 23.92 L 18.51 24.27 L 17.70 24.53 L 16.86 24.72 L 16.00 24.82 L 15.13 24.84 L 14.26 24.77 L 13.39 24.62 L 12.53 24.38 L 11.70 24.05 L 10.89 23.64 L 10.13 23.15 L 9.42 22.58 L 8.75 21.95 L 8.16 21.24 L 7.63 20.48 L 7.17 19.66 L 6.80 18.79 L 6.51 17.89 L 6.31 16.95 L 6.20 16.00" fill="none" stroke="#F2EAD0" stroke-width="1.9" stroke-linecap="round" stroke-linejoin="round"/>
  <circle cx="6.20" cy="16.00" r="1.7" fill="#F2EAD0"/>
  <circle cx="16" cy="16" r="1.1" fill="#F2EAD0"/>
</svg>
